<svg width="123" height="46" viewBox="0 0 123 46" fill="none" xmlns="http://www.w3.org/2000/svg">
<path d="M62.72 30.648C62.72 33.848 63.7547 35.96 65.824 36.984C66.336 37.048 67.008 37.08 67.84 37.08C68.6933 37.08 69.5893 36.92 70.528 36.6C71.4667 36.28 72.192 35.8853 72.704 35.416C73.792 34.4133 74.4747 33.5493 74.752 32.824L74.912 32.344L75.552 32.6C75.4027 33.0907 75.1147 33.656 74.688 34.296C74.2613 34.936 73.7707 35.48 73.216 35.928C72.6827 36.376 71.8933 36.7813 70.848 37.144C69.824 37.528 68.6827 37.72 67.424 37.72C64.736 37.72 62.6453 36.9413 61.152 35.384C59.68 33.8267 58.944 31.6293 58.944 28.792C58.944 24.9307 60.192 21.752 62.688 19.256C65.184 16.76 68.4587 15.512 72.512 15.512C74.3893 15.512 75.744 15.8533 76.576 16.536C77.408 17.1973 77.824 18.2427 77.824 19.672C77.824 20.632 77.3547 21.816 76.416 23.224C75.5627 24.5893 75.136 25.656 75.136 26.424H74.432C74.432 25.9973 74.5173 25.5387 74.688 25.048C74.8587 24.5573 75.008 24.2053 75.136 23.992C75.264 23.7787 75.4987 23.3947 75.84 22.84C76.672 21.5813 77.088 20.5467 77.088 19.736C77.088 18.0293 76.384 16.952 74.976 16.504C74.3147 16.2907 73.6213 16.184 72.896 16.184C72.1707 16.184 71.4027 16.2267 70.592 16.312C69.8453 16.5467 69.1307 16.856 68.448 17.24C67.7867 17.6027 67.0933 18.168 66.368 18.936C65.6427 19.6827 65.024 20.5573 64.512 21.56C64 22.5627 63.5733 23.8533 63.232 25.432C62.8907 26.9893 62.72 28.728 62.72 30.648ZM83.5058 35.288C81.8631 35.288 80.6151 34.8827 79.7618 34.072C78.9084 33.24 78.4818 32.2053 78.4818 30.968C78.4818 29.7093 78.5884 28.6427 78.8018 27.768C79.0364 26.872 79.4098 26.0187 79.9218 25.208C80.4338 24.376 81.2018 23.7253 82.2258 23.256C83.2711 22.7867 84.5618 22.552 86.0978 22.552C87.6551 22.552 88.8604 22.968 89.7138 23.8C90.5884 24.6107 91.0258 25.7307 91.0258 27.16C91.0258 29.592 90.3751 31.5547 89.0738 33.048C87.7938 34.5413 85.9378 35.288 83.5058 35.288ZM82.0978 31.992C82.0978 33.6987 82.5884 34.552 83.5698 34.552C84.5724 34.552 85.4578 33.6987 86.2258 31.992C87.0151 30.264 87.4098 28.216 87.4098 25.848C87.4098 24.056 86.9191 23.16 85.9378 23.16C84.9778 23.16 84.0924 23.9813 83.2818 25.624C82.4924 27.2453 82.0978 29.368 82.0978 31.992ZM100.002 14.264C100.77 14.264 101.399 14.552 101.89 15.128C102.402 15.704 102.658 16.568 102.658 17.72C102.658 18.872 102.199 20.5787 101.282 22.84H102.498L102.434 23.416H101.026C100.3 25.2293 99.9378 26.6053 99.9378 27.544H99.3618C99.3618 26.4347 99.7138 25.0587 100.418 23.416H98.5618C97.9218 26.7653 97.1004 31.3733 96.0978 37.24H92.2258L94.6898 23.416H92.7378L92.8018 22.84H94.7858L95.2977 20.088C95.6391 17.976 96.1618 16.4827 96.8658 15.608C97.5911 14.712 98.6364 14.264 100.002 14.264ZM102.05 17.656C102.05 16.888 101.868 16.2267 101.506 15.672C101.164 15.1173 100.738 14.84 100.226 14.84C100.012 15.672 99.4898 18.3387 98.6578 22.84H100.642C101.58 20.7067 102.05 18.9787 102.05 17.656ZM109.72 14.264C110.489 14.264 111.118 14.552 111.609 15.128C112.121 15.704 112.377 16.568 112.377 17.72C112.377 18.872 111.918 20.5787 111.001 22.84H112.217L112.153 23.416H110.745C110.019 25.2293 109.657 26.6053 109.657 27.544H109.081C109.081 26.4347 109.433 25.0587 110.137 23.416H108.281C107.641 26.7653 106.819 31.3733 105.817 37.24H101.945L104.409 23.416H102.457L102.521 22.84H104.505L105.016 20.088C105.358 17.976 105.881 16.4827 106.585 15.608C107.31 14.712 108.355 14.264 109.72 14.264ZM111.769 17.656C111.769 16.888 111.587 16.2267 111.225 15.672C110.883 15.1173 110.457 14.84 109.945 14.84C109.731 15.672 109.209 18.3387 108.377 22.84H110.361C111.299 20.7067 111.769 18.9787 111.769 17.656ZM118.831 22.552C121.541 22.552 122.895 23.6293 122.895 25.784C122.895 27.128 122.255 28.152 120.975 28.856C119.717 29.5387 117.914 29.8907 115.567 29.912C115.525 30.68 115.503 31.288 115.503 31.736C115.503 32.696 115.717 33.4107 116.143 33.88C116.591 34.328 117.146 34.552 117.807 34.552C118.469 34.552 119.066 34.424 119.599 34.168C120.154 33.912 120.591 33.6133 120.911 33.272C121.231 32.9093 121.509 32.536 121.743 32.152C122.17 31.448 122.383 31 122.383 30.808L122.959 31.064C122.895 31.4053 122.703 31.864 122.383 32.44C122.063 32.9947 121.711 33.4533 121.327 33.816C120.943 34.1787 120.378 34.52 119.631 34.84C118.885 35.1387 118.053 35.288 117.135 35.288C115.407 35.288 114.095 34.8827 113.199 34.072C112.325 33.24 111.887 32.1093 111.887 30.68C111.887 28.1413 112.517 26.1573 113.775 24.728C115.034 23.2773 116.719 22.552 118.831 22.552ZM122.095 25.784C122.095 25.08 121.882 24.504 121.455 24.056C121.05 23.5867 120.431 23.352 119.599 23.352C118.789 23.352 117.989 23.8427 117.199 24.824C116.431 25.8053 115.919 27.256 115.663 29.176C119.951 29.1547 122.095 28.024 122.095 25.784Z" fill="black"/>
<path d="M32.1576 16.0518C33.0079 14.7732 33.81 12.6615 31.8306 10.6677C29.8411 8.66597 31.1636 5.75 31.1636 5.75C31.1636 5.75 26.9847 9.60466 29.624 12.2626C31.1571 13.8058 31.538 15.0557 31.538 15.9182C29.4601 15.4876 27.1493 15.2123 24.6869 15.1247C25.6888 13.3465 26.376 10.7058 23.9617 8.20022C21.3095 5.44813 23.0748 1.4375 23.0748 1.4375C23.0748 1.4375 17.5023 6.73756 21.022 10.3917C22.8929 12.3337 23.4737 13.933 23.5585 15.0995C23.3723 15.0973 23.1876 15.0938 23 15.0938C20.7625 15.0938 18.6286 15.249 16.6556 15.5336C17.3506 14.2456 17.7481 12.4114 16.0166 10.6677C14.0271 8.66669 15.3503 5.75 15.3503 5.75C15.3503 5.75 11.1715 9.60466 13.8101 12.2626C15.2095 13.6713 15.6458 14.8328 15.7119 15.6817C8.95347 16.831 4.31106 19.5529 4.3125 22.8218C4.31466 22.9928 4.33047 23.1632 4.35203 23.2904C4.54394 25.2137 5.49197 31.8909 9.63341 37.5554L8.90028 39.5679L13.9632 41.4101C13.9926 41.4273 14.025 41.4431 14.0544 41.4597C14.4814 42.0088 15.1211 42.6204 16.0842 43.1847C17.0502 43.7496 19.3487 44.5625 22.9986 44.5625C26.6498 44.5625 28.9498 43.7496 29.9144 43.1854C30.8761 42.6219 31.515 42.0102 31.9412 41.4632C33.8359 40.36 35.3028 39.0008 36.2796 37.6805C40.4929 31.993 41.4532 25.2281 41.6422 23.327C41.6681 23.1603 41.6839 22.9914 41.6875 22.7894C41.6875 19.854 37.8867 17.3528 32.1576 16.0518ZM14.9917 34.6358V34.2484C15.189 34.3375 15.3457 34.4975 15.4305 34.6967C15.5153 34.8959 15.5221 35.1197 15.4495 35.3237C15.3644 35.5318 15.202 35.6988 14.9964 35.7897C14.7908 35.8807 14.558 35.8885 14.3468 35.8115C14.1356 35.7345 13.9624 35.5788 13.8635 35.3769C13.7647 35.175 13.7478 34.9426 13.8165 34.7286C13.8559 34.6203 13.9166 34.521 13.995 34.4366C14.0734 34.3521 14.1679 34.2842 14.2729 34.2369V34.6358H14.9917ZM40.2486 22.8067C40.2457 22.9208 40.2351 23.0346 40.2169 23.1473C40.0322 24.9917 39.1201 31.4324 35.1246 36.8244C33.1416 39.5047 28.9153 42.3682 23 42.3682C20.5253 42.3682 18.3504 41.8629 16.5075 41.0838L17.7208 37.748L15.2627 33.2954L14.9917 33.3996V27.7279C17.3406 28.2303 20.0747 28.5214 22.9986 28.5214C30.6245 28.5214 36.989 26.5593 38.4797 23.9466C36.989 21.3354 30.6245 19.3717 22.9986 19.3717C15.3726 19.3717 9.00953 21.3354 7.51525 23.9466C8.37703 25.4531 10.8646 26.7411 14.2729 27.5633V33.6777L10.516 35.1268L10.2321 35.9059C6.77925 30.7194 5.95556 24.8867 5.77731 23.1078C5.76015 23.0025 5.75054 22.8961 5.74856 22.7894C5.74856 20.5922 9.42497 18.2879 15.3913 17.1903C15.3683 17.227 15.3503 17.25 15.3503 17.25L15.4172 17.1853C17.6511 16.7771 20.1954 16.5312 23 16.5312C33.3184 16.5312 40.25 19.7663 40.2522 22.7326L40.2486 22.8067Z" fill="black"/>
</svg>
